<?xml version="1.0" standalone="no"?>
<!DOCTYPE svg PUBLIC "-//W3C//DTD SVG 20010904//EN"
 "http://www.w3.org/TR/2001/REC-SVG-20010904/DTD/svg10.dtd">
<svg version="1.0" xmlns="http://www.w3.org/2000/svg"
 width="700.000000pt" height="700.000000pt" viewBox="0 0 700.000000 700.000000"
 preserveAspectRatio="xMidYMid meet">
<metadata>
Created by potrace 1.11, written by Peter Selinger 2001-2013
</metadata>
<g transform="translate(0.000000,700.000000) scale(0.100000,-0.100000)"
fill="#000000" stroke="none">
<path d="M3582 6923 c-6 -3 -9 -10 -6 -15 5 -7 2 -8 -7 -2 -20 12 -152 12
-161 -1 -5 -6 -8 -6 -8 1 0 7 -13 10 -32 8 -18 -2 -67 -5 -110 -7 -43 -1 -78
-6 -78 -12 0 -5 -5 -3 -10 5 -5 8 -10 10 -10 5 0 -6 -19 -11 -42 -12 -71 -2
-98 -7 -98 -18 0 -6 -3 -7 -8 0 -9 13 -32 18 -32 7 0 -8 -32 -14 -87 -15 -18
-1 -33 -5 -33 -10 0 -4 -8 -7 -17 -6 -38 3 -54 -1 -47 -13 5 -10 4 -10 -6 -1
-9 8 -19 9 -31 2 -10 -5 -22 -9 -26 -8 -4 1 -10 0 -13 -1 -11 -4 -46 -11 -70
-15 -14 -1 -27 -4 -30 -5 -3 -1 -8 -2 -12 -1 -5 0 -8 -3 -8 -8 0 -4 -8 -8 -17
-8 -27 0 -83 -15 -83 -22 0 -4 -9 -8 -20 -9 -43 -4 -50 -6 -50 -14 0 -4 -5 -8
-11 -8 -5 0 -7 6 -3 13 4 6 -2 3 -14 -7 -12 -11 -25 -16 -29 -13 -3 4 -12 2
-20 -4 -7 -6 -13 -8 -13 -3 0 5 -4 3 -8 -3 -4 -7 -19 -14 -32 -15 -14 -2 -31
-8 -38 -15 -7 -7 -28 -15 -47 -19 -19 -3 -35 -10 -35 -16 0 -5 -4 -7 -8 -4 -5
3 -20 -1 -35 -9 -15 -8 -27 -11 -27 -7 0 4 -5 0 -10 -8 -5 -8 -14 -16 -20 -16
-5 -1 -12 -3 -15 -4 -3 -1 -8 -3 -12 -4 -13 -3 -237 -117 -250 -128 -7 -6 -13
-7 -13 -2 0 5 -5 1 -11 -9 -6 -9 -14 -15 -20 -12 -5 4 -9 1 -9 -4 0 -6 -7 -11
-15 -11 -8 0 -15 -5 -15 -11 0 -6 -5 -9 -12 -7 -6 2 -22 -6 -36 -19 -13 -12
-28 -20 -32 -18 -4 3 -11 -2 -14 -11 -3 -8 -10 -12 -16 -9 -5 3 -10 1 -10 -4
0 -6 -5 -11 -11 -11 -6 0 -24 -10 -39 -22 -60 -48 -75 -58 -88 -58 -7 0 -10
-4 -7 -10 3 -5 -6 -12 -20 -16 -13 -3 -22 -10 -19 -15 3 -5 -2 -9 -10 -9 -9 0
-16 -5 -16 -10 0 -6 -3 -9 -7 -8 -8 3 -44 -25 -85 -64 -10 -10 -23 -18 -29
-18 -5 0 -7 -5 -3 -12 5 -8 2 -9 -9 -5 -10 4 -16 2 -14 -6 1 -7 -4 -11 -10 -9
-7 1 -13 -5 -13 -15 0 -9 -3 -14 -6 -10 -8 8 -44 -25 -38 -35 3 -4 -2 -5 -10
-2 -11 4 -16 0 -16 -10 0 -9 -4 -16 -9 -16 -12 0 -205 -191 -226 -224 -10 -14
-21 -24 -25 -21 -5 3 -11 -4 -15 -15 -3 -11 -11 -20 -16 -20 -5 0 -9 -7 -9
-15 0 -8 -7 -15 -17 -15 -9 0 -14 -3 -10 -6 6 -6 2 -12 -51 -70 -17 -19 -32
-42 -32 -50 0 -8 -3 -13 -7 -11 -8 4 -45 -30 -40 -37 1 -3 -20 -35 -48 -72
-56 -76 -72 -101 -81 -126 -3 -10 -11 -15 -17 -11 -6 4 -8 0 -5 -9 4 -8 -2
-20 -13 -27 -11 -6 -17 -16 -14 -21 3 -5 -3 -13 -12 -19 -10 -6 -14 -11 -9
-11 4 0 -2 -15 -15 -32 -13 -18 -35 -57 -49 -85 -14 -29 -29 -53 -33 -53 -5 0
-5 -4 -2 -10 3 -5 1 -10 -6 -10 -7 0 -9 -3 -6 -6 4 -4 -2 -19 -13 -34 -11 -15
-17 -30 -13 -34 3 -3 1 -6 -5 -6 -7 0 -12 -6 -12 -13 0 -7 -9 -29 -19 -49 -11
-19 -17 -38 -14 -42 3 -3 -2 -8 -11 -12 -9 -3 -14 -10 -11 -14 3 -5 -4 -25
-15 -44 -11 -20 -17 -36 -14 -36 4 0 1 -7 -6 -15 -6 -8 -9 -19 -5 -25 3 -5 1
-10 -4 -10 -6 0 -11 -4 -11 -9 0 -5 -5 -22 -12 -38 -6 -15 -12 -31 -13 -35 -2
-5 -4 -11 -5 -15 -1 -5 -2 -11 -1 -15 0 -5 -4 -8 -9 -8 -5 0 -9 -3 -8 -7 1 -5
-4 -26 -10 -47 -6 -22 -9 -43 -7 -47 3 -4 1 -9 -5 -11 -5 -1 -11 -12 -13 -23
-1 -11 -6 -26 -10 -32 -5 -7 -6 -13 -3 -13 3 0 -1 -15 -9 -34 -8 -18 -11 -36
-8 -40 4 -3 2 -6 -3 -6 -5 0 -10 -10 -10 -22 -2 -33 -13 -78 -25 -100 -7 -13
-6 -18 2 -18 8 0 9 -4 0 -13 -6 -8 -8 -17 -4 -20 3 -4 2 -7 -3 -7 -6 0 -11
-10 -11 -22 -2 -27 -10 -82 -19 -118 -3 -14 -6 -40 -6 -57 -1 -18 -4 -33 -7
-33 -4 0 -6 -19 -5 -42 1 -24 -4 -47 -10 -51 -8 -6 -7 -10 2 -14 6 -2 9 -10 6
-15 -13 -21 -15 -64 -18 -328 -2 -181 1 -267 8 -272 7 -5 7 -8 -2 -8 -7 0 -10
-5 -7 -10 4 -6 7 -33 8 -60 0 -28 3 -50 7 -50 3 0 6 -9 7 -20 1 -13 -2 -18 -9
-14 -7 5 -8 2 -2 -7 4 -8 9 -21 10 -29 11 -88 16 -119 20 -140 12 -67 15 -87
19 -115 2 -16 4 -32 5 -35 1 -3 2 -8 1 -12 0 -5 4 -8 9 -8 7 0 7 -6 0 -20 -7
-14 -7 -20 0 -20 5 0 10 -13 10 -30 0 -16 5 -30 11 -30 7 0 9 -10 7 -25 -3
-14 -1 -25 3 -25 5 0 8 -3 8 -7 -1 -5 0 -10 1 -13 2 -5 5 -20 13 -55 3 -11 12
-38 19 -61 8 -23 14 -48 12 -58 -1 -9 2 -13 9 -9 6 4 8 0 4 -10 -3 -10 -2 -17
4 -17 5 0 9 -6 8 -12 -3 -24 1 -39 9 -34 4 2 9 -7 10 -20 1 -14 8 -37 17 -53
8 -16 11 -31 8 -35 -4 -3 -2 -6 4 -6 5 0 10 -6 10 -12 2 -20 27 -82 37 -89 5
-4 5 -12 1 -19 -5 -8 -4 -11 2 -7 6 4 15 -11 22 -33 6 -22 16 -40 21 -40 5 0
7 -7 4 -15 -4 -8 -1 -15 5 -15 6 0 11 -9 11 -20 0 -11 6 -23 14 -26 8 -3 13
-11 10 -18 -3 -7 2 -19 10 -26 9 -7 13 -16 10 -21 -3 -5 -2 -9 3 -9 4 0 15
-15 22 -32 8 -18 23 -40 33 -49 10 -9 15 -19 11 -22 -3 -4 2 -16 12 -27 11
-12 20 -29 21 -38 2 -9 8 -18 14 -20 5 -2 8 -8 4 -13 -3 -5 0 -9 5 -9 6 0 11
-7 11 -16 0 -8 5 -12 10 -9 6 3 10 -1 10 -10 0 -8 7 -18 15 -21 8 -4 12 -10 9
-15 -3 -5 7 -21 23 -36 15 -16 26 -29 25 -30 -4 -6 34 -63 41 -63 5 0 5 -5 2
-10 -3 -5 1 -10 10 -10 9 0 13 -4 10 -10 -3 -5 -1 -10 6 -10 7 0 10 -3 6 -6
-3 -3 4 -16 16 -29 38 -38 67 -75 60 -75 -3 0 4 -8 15 -19 12 -10 22 -24 22
-30 0 -7 4 -9 10 -6 5 3 10 -1 10 -9 0 -9 4 -16 8 -16 5 0 15 -11 22 -25 7
-14 19 -25 27 -25 7 0 13 -7 13 -15 0 -8 5 -15 11 -15 5 0 7 -4 4 -10 -4 -6 1
-7 11 -3 12 4 15 3 10 -5 -4 -7 -1 -15 8 -18 8 -3 18 -14 21 -24 3 -11 15 -22
26 -25 10 -4 19 -11 19 -17 0 -14 47 -58 54 -50 3 3 6 -2 6 -11 0 -9 4 -17 8
-17 5 0 32 -23 61 -50 29 -27 57 -50 62 -50 6 0 8 -3 6 -7 -2 -5 4 -16 15 -26
10 -9 18 -15 18 -12 0 3 12 -6 27 -20 15 -14 34 -25 41 -25 7 0 11 -4 8 -9 -3
-4 6 -13 19 -19 14 -7 25 -16 25 -22 0 -5 7 -10 15 -10 8 0 15 -4 15 -8 0 -5
11 -15 25 -22 13 -7 22 -17 19 -22 -3 -4 4 -8 15 -8 12 0 21 -4 21 -10 0 -5 7
-10 15 -10 8 0 15 -3 15 -8 0 -4 16 -16 35 -26 19 -11 35 -23 35 -28 0 -5 4
-7 9 -4 5 4 11 3 13 -2 5 -11 100 -72 113 -72 6 0 21 -9 33 -20 12 -12 22 -17
22 -13 0 4 7 -2 16 -13 8 -10 12 -12 8 -4 -5 10 0 9 14 -4 12 -11 22 -15 22
-11 0 4 8 -1 17 -12 10 -11 24 -18 32 -15 8 3 11 0 7 -7 -5 -7 -1 -9 8 -5 9 3
16 1 16 -5 0 -6 6 -11 14 -11 8 0 22 -7 30 -16 12 -12 16 -12 16 -2 0 10 2 10
9 -1 5 -8 20 -16 32 -18 13 -2 30 -10 39 -18 9 -8 20 -12 23 -8 4 3 7 1 7 -5
0 -7 9 -12 20 -12 11 0 20 -5 20 -12 0 -6 3 -8 6 -5 4 3 16 1 28 -5 11 -7 30
-13 41 -15 10 -2 22 -7 25 -11 3 -4 14 -9 25 -10 11 -2 21 -8 23 -12 2 -5 10
-6 18 -3 8 3 14 -1 14 -8 0 -7 3 -10 6 -6 4 3 19 0 35 -9 16 -8 31 -14 34 -14
3 0 6 0 8 -1 56 -17 154 -11 178 11 9 8 24 21 35 28 10 7 12 10 4 7 -8 -4 -4
3 9 14 13 12 20 21 16 21 -4 0 -2 6 4 13 6 8 8 17 4 20 -3 4 -1 7 6 7 8 0 9 5
2 18 -6 11 -6 24 -1 32 5 9 5 19 -2 27 -6 7 -6 13 -2 13 10 0 11 87 1 97 -4 3
-2 14 3 24 7 12 6 19 -3 22 -9 4 -8 6 2 6 11 1 11 4 1 16 -7 8 -8 15 -4 15 5
0 7 32 4 70 -3 44 -1 70 5 70 5 0 3 5 -5 10 -11 7 -11 10 -2 10 7 0 11 4 8 9
-9 14 -11 145 -2 159 4 7 4 12 -1 12 -4 0 -7 18 -7 40 l2 41 -42 -5 c-22 -2
-41 -5 -41 -6 0 -3 -44 -8 -106 -13 -31 -2 -62 -8 -69 -12 -9 -6 -11 -4 -5 6
8 12 6 12 -8 0 -13 -10 -17 -10 -17 -1 0 10 -3 10 -15 0 -8 -7 -15 -9 -15 -4
0 5 -11 9 -25 9 -14 0 -25 -3 -25 -6 0 -3 -7 -6 -15 -6 -8 0 -15 4 -15 9 0 11
-33 6 -42 -7 -5 -6 -8 -6 -8 1 0 10 -24 14 -112 17 -21 1 -38 4 -38 8 0 3 -10
5 -22 5 -49 2 -116 18 -221 57 -20 7 -34 17 -30 22 5 4 0 6 -9 2 -9 -3 -19 0
-22 9 -3 8 -12 14 -21 14 -8 0 -15 5 -15 10 0 6 -7 10 -15 10 -8 0 -15 5 -15
10 0 6 -7 10 -16 10 -8 0 -12 5 -9 10 3 6 1 10 -5 10 -13 0 -66 51 -63 62 2 4
-6 10 -17 13 -11 4 -20 15 -20 25 0 10 -4 20 -8 22 -15 6 -52 80 -46 90 4 7 2
8 -4 4 -7 -4 -12 -1 -12 6 0 7 -9 30 -20 51 -11 20 -20 38 -19 39 4 12 -15 57
-22 52 -5 -3 -9 4 -9 15 0 12 -5 21 -11 21 -5 0 -8 4 -4 9 3 5 -2 16 -10 24
-8 9 -15 23 -15 31 0 9 -4 16 -10 16 -5 0 -10 6 -10 13 0 7 -15 30 -34 52 -19
22 -33 41 -31 43 2 2 -10 16 -26 31 -16 15 -26 31 -22 34 3 4 -1 7 -10 7 -9 0
-17 7 -17 15 0 8 -6 14 -12 12 -7 -1 -12 4 -11 10 2 7 -1 12 -6 10 -5 -1 -17
7 -26 18 -9 11 -13 13 -9 5 4 -8 -3 -5 -15 8 -12 12 -26 22 -32 22 -5 0 -19 9
-31 20 -12 10 -24 17 -28 15 -4 -3 -10 5 -13 16 -3 12 -10 18 -16 15 -5 -4
-12 3 -16 14 -3 11 -11 20 -16 20 -6 0 -8 4 -5 9 3 5 -1 11 -9 15 -22 8 -19
63 4 75 10 6 21 7 25 4 3 -3 6 -2 6 4 0 11 0 11 87 13 34 1 67 -1 74 -6 7 -4
27 -9 43 -11 17 -2 32 -7 35 -11 4 -4 20 -9 36 -10 17 -2 36 -11 43 -20 6 -9
19 -17 29 -18 9 -2 19 -6 22 -11 3 -4 18 -14 34 -22 15 -8 27 -18 27 -23 0 -4
5 -8 11 -8 16 0 89 -67 81 -74 -3 -3 2 -6 11 -6 9 0 17 -4 17 -8 0 -5 8 -17
18 -28 27 -30 102 -143 102 -154 0 -5 5 -10 10 -10 6 0 10 -4 10 -10 0 -11 26
-44 53 -69 9 -8 17 -19 17 -22 0 -4 13 -21 30 -37 16 -17 30 -28 30 -26 0 3
11 -7 25 -21 14 -14 30 -25 34 -25 4 0 19 -9 32 -21 13 -11 36 -23 51 -26 15
-3 25 -9 22 -14 -3 -5 2 -10 10 -10 29 -3 34 -4 42 -12 4 -4 18 -7 31 -7 13 0
23 -6 23 -12 0 -9 4 -8 10 2 5 8 10 10 10 4 0 -8 39 -11 125 -10 69 0 125 3
125 6 0 3 21 6 46 7 27 0 50 7 55 15 5 7 9 8 9 2 0 -12 92 13 98 27 2 4 10 5
18 2 8 -3 14 0 14 7 0 6 4 9 9 5 5 -3 12 -1 16 5 4 6 10 8 15 5 5 -3 12 0 16
7 8 13 9 19 15 76 2 17 6 32 9 32 3 0 6 8 6 18 1 21 7 45 14 52 3 3 14 31 24
63 11 31 23 57 28 57 4 0 8 6 8 13 0 7 9 23 20 35 12 12 17 22 13 22 -4 0 2
10 14 23 66 66 74 77 58 77 -8 0 -17 -1 -18 -2 -2 -2 -11 3 -20 11 -14 11 -17
11 -17 0 0 -9 -3 -10 -8 -3 -4 6 -20 10 -35 10 -16 -1 -31 2 -33 6 -3 4 -11 5
-19 1 -9 -3 -21 -1 -28 4 -6 5 -23 8 -37 7 -14 -1 -29 2 -35 6 -5 5 -13 9 -17
9 -5 1 -9 1 -10 2 -2 0 -23 2 -47 4 -25 3 -47 8 -50 12 -3 4 -24 9 -46 11 -22
2 -42 7 -45 10 -3 4 -14 8 -25 10 -21 3 -31 6 -55 15 -8 3 -24 7 -35 9 -11 2
-22 6 -25 10 -3 3 -14 8 -25 10 -11 1 -23 7 -26 11 -3 4 -16 9 -27 10 -12 1
-22 4 -22 8 0 10 -51 30 -61 24 -5 -4 -9 -1 -9 5 0 13 -61 40 -74 33 -5 -4 -6
-1 -2 5 4 7 -3 14 -19 18 -14 3 -25 9 -25 13 0 3 -17 15 -37 26 -39 20 -95 58
-126 85 -82 71 -129 114 -142 132 -5 7 -23 29 -40 49 -16 20 -37 46 -45 59 -8
12 -20 28 -27 35 -7 7 -9 15 -6 19 4 3 1 6 -6 6 -7 0 -9 5 -6 10 3 6 2 10 -3
10 -6 0 -19 18 -30 40 -10 22 -14 37 -8 33 6 -4 4 2 -5 13 -20 25 -63 115 -63
134 0 8 -3 17 -6 20 -7 7 -32 72 -33 88 0 6 -5 12 -11 12 -6 0 -4 5 4 10 10 6
11 10 3 10 -7 0 -13 9 -13 20 0 11 -4 20 -10 20 -5 0 -7 7 -4 15 3 8 -1 28 -9
45 -10 19 -11 28 -4 23 7 -4 5 1 -3 12 -8 10 -13 19 -11 19 2 1 0 24 -4 51 -5
28 -7 54 -6 59 1 4 -4 14 -10 22 -9 11 -8 14 2 14 9 0 10 3 4 8 -6 4 -10 24
-10 45 0 20 -4 37 -9 37 -4 0 -3 6 3 13 6 8 7 17 3 21 -9 10 -12 52 -12 236 0
165 2 188 14 208 4 7 2 12 -5 12 -8 0 -8 4 -2 13 6 6 11 19 11 27 5 57 8 76
14 80 4 3 8 20 10 38 1 18 6 32 10 32 4 0 7 3 6 8 -3 13 24 96 48 146 13 27
24 56 24 63 0 7 4 13 9 13 5 0 15 16 21 35 6 19 16 35 21 35 5 0 9 6 9 13 0 7
9 23 19 34 11 12 17 23 14 27 -3 3 2 8 11 12 9 3 13 10 10 15 -3 5 2 12 10 15
9 3 16 10 16 16 0 5 11 19 25 32 14 13 25 27 25 31 0 4 10 16 22 27 13 11 18
22 13 26 -10 7 -12 14 -21 56 -2 11 -7 22 -12 25 -5 3 -8 17 -7 31 1 14 -1 27
-5 30 -5 3 -9 21 -11 40 -2 19 -8 41 -13 49 -9 12 -8 13 3 6 11 -6 12 -5 5 6
-4 8 -9 47 -11 88 -1 41 -4 80 -7 88 -3 7 0 13 7 13 8 0 6 4 -3 10 -8 5 -10
10 -4 10 6 0 10 21 9 50 -1 28 3 50 7 50 5 0 7 3 4 8 -2 4 0 27 5 52 6 25 11
59 12 77 1 17 5 29 9 27 5 -3 8 1 9 8 0 7 3 22 5 33 3 11 6 30 7 42 1 13 5 23
10 23 4 0 7 4 7 9 0 5 5 22 12 38 6 15 10 34 9 41 -2 12 14 15 99 14 89 0 111
-2 107 -9 -3 -5 11 -9 31 -10 54 -4 62 -5 62 -15 0 -4 12 -8 26 -8 14 0 22 -4
19 -10 -3 -6 1 -7 10 -4 8 4 21 2 28 -4 6 -6 15 -11 19 -12 37 -9 48 -14 48
-22 0 -5 4 -7 8 -4 5 3 21 -2 36 -10 16 -7 35 -14 43 -14 8 0 21 -7 30 -15 8
-8 19 -13 24 -10 5 4 9 1 9 -4 0 -6 9 -11 20 -11 11 0 20 -5 20 -11 0 -6 7 -8
15 -5 9 3 18 -1 21 -9 4 -8 10 -12 15 -9 5 3 9 0 9 -6 0 -7 7 -10 15 -6 8 3
15 2 15 -3 0 -5 15 -16 33 -24 18 -9 49 -27 70 -41 21 -14 41 -26 46 -26 4 0
16 -8 27 -17 32 -30 69 -45 100 -41 16 2 31 6 34 10 3 4 19 9 35 12 17 2 31 5
33 6 1 2 11 4 22 5 11 1 22 4 25 5 3 1 8 3 13 4 4 1 13 5 21 10 10 7 12 6 6
-3 -6 -10 -3 -11 15 -1 12 6 31 10 41 7 10 -3 19 -2 19 3 0 7 9 9 82 13 20 1
34 5 32 9 -3 4 8 6 23 4 16 -1 34 2 41 7 8 6 12 5 12 -3 0 -9 4 -9 13 -3 6 6
19 11 27 11 65 2 139 10 149 16 6 4 11 1 11 -6 0 -9 3 -9 10 2 6 9 10 11 10 3
0 -7 6 -11 13 -9 45 14 68 16 61 5 -5 -8 -3 -9 6 -4 20 12 180 13 180 1 0 -6
4 -6 11 1 7 7 21 8 39 3 15 -4 33 -4 41 0 7 5 18 6 24 2 5 -4 26 -8 45 -9 85
-6 155 -12 155 -14 0 -1 18 -4 40 -6 71 -7 75 -7 75 -13 0 -3 11 -6 25 -6 14
-1 22 2 20 7 -3 4 7 2 21 -6 15 -8 31 -12 36 -9 4 3 14 2 21 -3 6 -4 20 -8 30
-9 9 -1 18 -3 20 -4 1 -1 11 -4 22 -6 66 -10 90 -17 93 -24 2 -5 9 -7 17 -4 7
3 16 1 19 -5 9 -13 47 1 90 34 18 14 36 22 39 19 4 -4 9 1 13 10 3 9 12 16 18
16 7 0 21 8 32 18 11 10 32 22 47 26 15 3 27 11 27 17 0 6 5 7 10 4 6 -3 10
-1 10 4 0 6 7 11 15 11 8 0 15 5 15 11 0 5 4 8 10 4 5 -3 18 3 30 15 11 11 22
20 25 20 27 2 64 14 60 21 -3 4 4 6 15 4 11 -2 20 0 20 6 0 5 6 9 14 9 8 0 21
7 30 15 8 9 19 15 23 14 16 -4 63 13 63 23 0 5 5 6 10 3 6 -3 10 -2 10 2 0 5
8 10 18 11 34 4 52 8 58 15 4 4 18 7 30 7 13 0 25 4 29 10 3 5 12 7 20 3 8 -3
15 -1 15 3 0 5 18 9 40 8 23 0 43 3 46 8 3 5 12 4 19 -2 10 -8 15 -8 20 0 4 7
11 8 18 2 7 -5 24 -12 39 -16 19 -4 26 -11 22 -21 -4 -8 -1 -15 5 -15 6 0 10
-3 9 -7 -2 -10 13 -64 21 -78 6 -12 11 -31 14 -62 1 -13 4 -23 7 -23 3 0 6
-10 7 -22 1 -11 8 -25 15 -29 11 -7 11 -9 0 -9 -8 0 -10 -5 -6 -12 4 -7 9 -21
10 -33 9 -71 13 -98 18 -102 3 -3 1 -13 -4 -23 -5 -10 -6 -21 -2 -25 10 -10
11 -144 1 -151 -4 -2 -4 -15 1 -28 5 -13 6 -27 2 -31 -4 -4 -8 -19 -8 -33 -1
-15 -3 -28 -4 -29 -1 -2 -3 -6 -4 -10 -1 -5 -5 -14 -10 -22 -7 -10 -6 -12 4
-6 10 6 11 4 4 -6 -4 -8 -10 -20 -11 -26 -6 -24 -11 -48 -13 -53 -1 -3 -2 -8
-1 -12 0 -5 -4 -8 -11 -8 -6 0 -8 -3 -5 -6 3 -4 1 -16 -4 -27 -8 -15 -8 -22 2
-28 8 -5 11 -9 7 -9 -5 0 0 -8 10 -18 9 -11 20 -17 25 -15 4 2 7 -5 7 -17 0
-12 5 -18 10 -15 6 3 10 1 10 -5 0 -6 6 -18 13 -25 29 -34 37 -45 31 -45 -4 0
3 -8 14 -19 12 -10 19 -21 15 -25 -3 -3 -1 -6 6 -6 7 0 9 -4 6 -10 -3 -5 -2
-10 3 -10 11 0 38 -60 34 -73 -1 -5 1 -6 6 -3 4 2 14 -10 21 -27 8 -18 22 -49
32 -70 10 -21 12 -35 6 -31 -7 3 -5 0 4 -8 9 -7 15 -21 13 -30 -1 -10 3 -18 9
-18 5 0 7 -3 4 -6 -3 -4 -1 -16 4 -27 11 -20 21 -65 23 -102 1 -11 5 -23 9
-26 5 -3 9 -29 10 -58 1 -28 6 -51 11 -51 5 0 3 -6 -3 -14 -7 -8 -8 -17 -3
-20 6 -3 10 -38 11 -78 0 -39 3 -73 6 -76 2 -3 0 -13 -6 -23 -7 -14 -6 -19 3
-19 9 0 9 -3 -2 -10 -11 -7 -11 -10 -2 -10 7 0 10 -5 7 -10 -4 -6 -8 -41 -9
-78 -1 -37 -4 -71 -6 -77 -3 -5 -5 -34 -5 -62 0 -29 -3 -53 -7 -53 -4 0 -5 -6
-2 -14 3 -8 0 -24 -6 -36 -10 -18 -9 -24 1 -31 12 -7 12 -9 0 -9 -7 0 -11 -6
-8 -15 4 -8 2 -17 -3 -20 -5 -3 -7 -14 -5 -25 2 -11 0 -22 -5 -25 -4 -3 -7
-20 -6 -39 1 -19 -2 -32 -6 -30 -5 3 -8 -2 -8 -10 0 -26 -1 -30 -12 -43 -6 -7
-8 -13 -5 -13 3 0 -5 -29 -18 -64 -13 -35 -21 -67 -17 -70 3 -3 0 -6 -6 -6 -7
0 -12 -11 -12 -25 0 -14 -3 -25 -7 -25 -5 0 -13 -11 -20 -25 -8 -19 -8 -23 0
-18 7 3 3 -3 -7 -15 -11 -12 -15 -22 -10 -22 5 0 4 -4 -1 -8 -6 -4 -17 -20
-25 -37 -21 -43 -63 -109 -75 -117 -5 -4 -6 -8 -2 -8 5 0 2 -6 -5 -13 -7 -8
-22 -27 -33 -42 -26 -38 -144 -155 -156 -155 -5 0 -9 -7 -9 -16 0 -8 -4 -13
-9 -9 -5 3 -17 -5 -25 -17 -9 -12 -16 -19 -16 -15 0 5 -7 2 -15 -5 -37 -34
-46 -39 -58 -32 -6 4 -9 4 -5 -1 8 -8 -51 -51 -64 -47 -5 1 -8 -2 -8 -7 0 -5
-11 -12 -25 -15 -17 -4 -23 -11 -19 -19 4 -7 4 -9 -1 -5 -4 4 -26 -3 -49 -14
-22 -12 -43 -22 -46 -23 -3 0 -30 -12 -60 -26 -55 -26 -114 -48 -137 -53 -7
-1 -16 -5 -19 -9 -4 -4 -17 -7 -29 -7 -11 0 -26 -5 -33 -12 -7 -7 -12 -9 -12
-5 0 3 -18 0 -40 -8 -30 -11 -40 -11 -40 -2 0 8 -3 8 -9 -2 -5 -7 -13 -11 -19
-7 -6 3 -13 2 -17 -4 -4 -6 -11 -8 -16 -4 -5 3 -15 2 -22 -3 -7 -5 -25 -10
-42 -12 -16 -2 -39 -8 -50 -13 -14 -8 -20 -8 -23 1 -3 9 -7 9 -18 0 -7 -6 -20
-9 -29 -6 -8 4 -17 2 -20 -2 -2 -5 -18 -7 -35 -6 -16 1 -30 -1 -30 -6 0 -5 -6
-6 -13 -3 -7 2 -24 0 -38 -5 -13 -5 -19 -10 -12 -10 16 -1 73 -63 73 -79 0 -7
5 -10 10 -7 6 3 10 -2 10 -12 0 -10 9 -25 19 -33 11 -7 18 -17 15 -22 -3 -4 2
-15 10 -24 9 -8 21 -34 27 -57 6 -23 16 -48 21 -55 6 -6 8 -12 4 -12 -4 0 1
-14 10 -31 9 -18 11 -28 4 -24 -9 6 -9 2 -1 -14 7 -12 9 -26 6 -31 -3 -6 -2
-10 2 -10 9 0 10 -11 16 -146 2 -44 7 -86 11 -92 4 -7 2 -12 -4 -12 -8 0 -8
-6 0 -20 8 -15 8 -20 -2 -20 -10 0 -10 -2 1 -9 11 -7 10 -10 -5 -14 -17 -4
-17 -5 -1 -6 10 0 15 -6 12 -11 -9 -15 -10 -124 -1 -139 4 -6 4 -11 -1 -11 -4
0 -8 -20 -8 -45 0 -25 5 -45 10 -45 7 0 7 -3 0 -8 -5 -4 -10 -14 -10 -22 0 -8
5 -18 10 -22 7 -5 7 -8 0 -8 -11 0 -12 -71 -1 -89 4 -6 2 -11 -4 -11 -8 0 -8
-6 0 -20 8 -15 8 -20 -2 -20 -10 0 -10 -2 1 -9 11 -7 10 -10 -5 -14 -17 -4
-17 -5 -1 -6 10 0 15 -6 12 -11 -9 -15 -10 -124 -1 -139 4 -6 4 -11 -1 -11 -4
0 -8 -20 -8 -45 0 -25 5 -45 10 -45 7 0 7 -3 0 -8 -5 -4 -10 -14 -10 -22 0 -8
5 -18 10 -22 6 -5 6 -8 -1 -8 -8 0 -9 -11 -4 -35 4 -19 5 -35 1 -35 -4 0 -6
-14 -3 -30 2 -17 7 -30 11 -30 4 0 8 -10 8 -22 1 -13 10 -28 19 -35 10 -7 14
-13 9 -13 -17 0 34 -30 75 -45 24 -9 40 -10 40 -4 0 6 6 7 12 3 18 -11 48 -12
48 -2 0 4 11 8 25 8 14 0 25 5 25 11 0 5 4 8 9 5 5 -3 25 1 45 9 20 9 42 13
48 9 6 -4 8 -3 5 3 -6 10 37 29 56 25 4 -1 7 3 7 9 0 5 3 8 8 5 4 -2 34 9 66
24 33 16 63 27 68 24 4 -3 11 2 14 10 3 9 14 16 24 16 10 0 26 7 34 16 9 8 16
12 16 8 0 -3 7 -1 15 6 8 6 18 9 24 6 5 -3 12 1 15 10 3 8 10 12 16 9 5 -3 10
-1 10 4 0 6 3 10 8 10 18 -3 33 2 28 10 -3 4 13 14 34 21 22 7 40 16 40 20 0
7 48 33 62 34 4 1 17 9 28 19 11 9 26 17 34 17 8 0 16 7 20 15 3 8 12 15 21
15 8 0 15 5 15 10 0 6 7 10 15 10 8 0 15 5 15 10 0 6 5 10 11 10 6 0 17 7 26
15 8 8 19 12 25 9 6 -4 8 -3 5 3 -3 5 8 18 26 28 18 10 50 33 71 52 22 18 46
33 53 33 8 0 11 4 8 10 -3 5 -3 10 2 10 8 0 40 26 101 80 18 17 37 30 43 30 6
0 7 5 4 10 -3 6 -2 10 4 10 15 0 61 46 61 61 0 11 2 11 10 -1 9 -13 10 -13 10
0 1 8 19 29 40 45 21 17 39 33 40 37 0 3 27 34 59 67 33 34 57 61 54 61 -3 0
6 9 21 21 14 11 24 25 21 30 -4 5 -1 9 5 9 13 0 40 24 40 36 0 3 9 15 21 25
11 9 19 19 18 21 -3 3 5 13 54 70 9 12 17 27 17 35 0 7 7 13 15 13 8 0 15 6
15 14 0 8 7 16 15 20 8 3 15 12 15 19 0 8 7 21 16 28 18 15 39 59 35 74 -2 5
1 7 4 3 8 -8 38 26 48 55 3 9 11 17 17 17 6 0 8 5 5 10 -3 5 -2 10 4 10 5 0
13 10 17 22 3 12 13 28 20 36 8 7 14 22 14 33 0 11 4 18 9 15 5 -3 12 5 15 19
4 14 11 25 16 25 5 0 7 9 5 19 -2 13 1 18 9 15 7 -3 12 5 13 17 1 12 6 25 10
28 16 11 46 64 32 56 -8 -5 -6 1 4 13 11 11 16 26 12 32 -3 6 -1 9 6 8 6 -2
13 8 14 21 1 14 7 27 14 29 6 2 9 7 6 12 -3 5 2 16 11 24 8 9 12 16 8 16 -3 0
-1 7 6 15 7 8 10 15 6 15 -4 0 1 11 10 25 8 13 13 28 10 34 -3 5 -1 11 4 13 6
2 12 10 14 18 2 8 8 28 14 43 7 16 12 34 12 42 0 8 5 17 10 20 6 3 10 15 10
26 0 11 4 17 10 14 6 -3 7 1 4 10 -4 8 -1 22 6 30 7 8 10 15 6 15 -3 0 -1 12
5 28 12 30 20 61 21 80 1 6 5 12 10 12 5 0 7 4 4 9 -3 5 1 27 9 50 8 23 12 41
8 41 -3 0 0 7 7 15 7 8 10 22 6 30 -3 8 -2 15 3 15 5 0 8 12 9 28 0 15 1 29 2
32 1 3 4 14 6 25 4 26 12 60 14 60 1 0 3 11 5 25 7 49 14 83 19 88 3 3 1 11
-5 19 -7 7 -7 13 -2 13 5 0 11 21 12 48 2 59 5 74 14 90 5 7 3 12 -3 12 -7 0
-8 5 -3 13 10 16 14 81 17 337 1 123 -2 220 -7 228 -6 7 -6 12 1 12 6 0 7 12
3 33 -4 17 -7 44 -7 60 1 15 -1 27 -5 27 -9 0 -6 27 4 36 4 4 2 12 -3 19 -5 6
-11 33 -11 58 -1 26 -6 47 -10 47 -4 0 -5 9 -2 20 3 11 -1 28 -8 37 -12 15
-12 16 1 8 13 -8 13 -7 1 8 -8 10 -11 20 -8 24 4 3 2 15 -4 26 -7 12 -7 17 -1
13 10 -6 8 1 -16 74 -3 8 -5 24 -6 35 -1 11 -4 25 -7 30 -4 6 -5 20 -4 33 1
12 -3 22 -8 22 -5 0 -7 7 -4 15 4 8 2 17 -3 20 -5 3 -7 12 -3 20 3 8 0 15 -7
15 -6 0 -10 6 -7 13 2 6 -2 27 -9 46 -8 18 -14 42 -14 52 0 11 -4 19 -8 19 -5
0 -9 6 -9 13 -1 31 -13 71 -29 94 -9 14 -12 23 -6 19 6 -3 1 12 -10 35 -10 22
-20 49 -21 60 -1 10 -4 19 -8 19 -6 0 -16 23 -24 57 -7 28 -30 73 -38 73 -5 0
-5 5 -2 10 3 6 2 10 -4 10 -6 0 -8 7 -5 15 4 8 1 15 -7 15 -7 0 -10 3 -6 6 3
3 -7 30 -23 59 -16 29 -26 56 -23 59 4 3 1 6 -5 6 -7 0 -12 7 -12 15 0 8 -3
15 -7 15 -5 0 -19 25 -33 55 -14 30 -29 55 -33 55 -5 0 -5 5 -2 10 3 6 1 10
-5 10 -6 0 -8 5 -5 10 3 6 3 10 -2 10 -10 1 -55 73 -51 83 2 5 -5 13 -14 18
-10 6 -18 17 -18 24 0 8 -5 15 -12 15 -6 0 -9 3 -5 6 3 3 1 11 -4 18 -38 45
-49 60 -49 65 0 3 -11 19 -25 34 -14 15 -23 27 -20 27 6 0 -6 16 -37 51 -10
10 -16 19 -12 19 3 0 -9 15 -26 33 -16 17 -33 40 -36 50 -3 9 -12 17 -20 17
-8 0 -14 5 -14 10 0 6 -8 18 -17 29 -10 10 -38 41 -63 70 -70 79 -171 181
-181 181 -5 0 -9 7 -9 15 0 8 -4 15 -9 15 -5 0 -27 18 -50 40 -22 22 -46 40
-52 40 -5 0 -7 5 -4 10 3 6 0 10 -7 10 -8 0 -20 9 -28 20 -8 11 -20 20 -26 20
-7 0 -15 7 -18 16 -3 8 -9 13 -13 11 -5 -3 -13 1 -20 8 -10 11 -10 15 0 18 7
3 2 6 -10 6 -13 1 -23 6 -23 11 0 6 -4 10 -10 10 -9 0 -35 19 -65 48 -8 6 -18
12 -24 12 -6 0 -11 5 -11 10 0 6 -7 10 -15 10 -8 0 -15 5 -15 11 0 5 -4 7 -10
4 -5 -3 -10 1 -10 10 0 9 -5 13 -10 10 -6 -3 -13 1 -16 9 -3 9 -13 16 -20 16
-8 0 -24 9 -36 20 -12 11 -28 20 -35 20 -8 0 -11 5 -8 10 3 6 -3 10 -14 10
-12 0 -21 5 -21 10 0 6 -7 10 -15 10 -8 0 -15 5 -15 11 0 5 -4 8 -9 5 -5 -3
-14 1 -21 9 -7 8 -19 15 -26 15 -8 0 -14 3 -14 8 0 8 -61 38 -72 34 -5 -1 -8
3 -8 8 0 6 -7 10 -15 10 -9 0 -18 6 -21 13 -3 8 -10 14 -17 14 -7 0 -50 19
-97 42 -47 24 -94 44 -105 47 -11 2 -21 8 -23 14 -2 5 -9 10 -15 10 -18 0
-170 60 -186 74 -12 9 -13 8 -7 -2 6 -11 4 -11 -10 -3 -37 19 -102 40 -108 34
-3 -4 -6 -1 -6 5 0 7 -3 11 -7 10 -13 -3 -113 24 -113 30 0 4 -19 8 -42 10
-23 1 -45 6 -48 11 -3 4 -14 7 -25 5 -10 -2 -24 1 -30 5 -5 5 -18 7 -27 6 -10
-2 -18 1 -18 7 0 6 -9 8 -20 5 -11 -3 -22 -1 -25 4 -3 4 -12 6 -20 2 -8 -3
-15 0 -15 7 0 10 -3 10 -14 1 -8 -7 -17 -8 -19 -4 -5 8 -45 14 -104 17 -13 1
-23 5 -23 10 0 4 -6 6 -14 3 -8 -3 -17 -1 -20 6 -3 8 -5 8 -5 1 -1 -8 -14 -9
-43 -4 -23 5 -50 7 -60 5 -10 -2 -18 -1 -18 3 0 4 -27 7 -60 7 -33 0 -60 4
-60 10 0 5 -5 4 -11 -2 -7 -7 -21 -8 -40 -3 -19 6 -29 5 -29 -2 0 -6 -8 -4
-17 4 -10 9 -24 13 -31 11z"/>
</g>
</svg>
